<?xml version="1.0" encoding="UTF-8"?> <svg xmlns="http://www.w3.org/2000/svg" id="Layer_1" data-name="Layer 1" viewBox="0 0 1980 393"><defs><style> .cls-1 { fill: #00cae9; } .cls-2 { fill: #fff; } </style></defs><path class="cls-1" d="M1744.1,333.9v-39.4l-117.95-117.7-117.95,117.95v39.4l117.95-117.95,117.95,117.7ZM1626.16,58.85l-117.95,117.95v39.4l117.95-117.95v-39.4ZM1862.05,275.05v-39.4l-117.95,117.95-117.95-117.95v39.4l117.95,117.95,117.95-117.95ZM1744.1,235.65l-117.95-117.7v39.4l117.95,117.95,117.95-117.95,117.95,117.95v-39.4l-117.95-117.95-117.95,117.7ZM1862.05,58.85v39.4l117.95,117.95v-39.4l-117.95-117.95ZM1862.05,0l-117.95,117.95v39.4l117.95-117.95V0Z"></path><g><path class="cls-2" d="M107.11,95.05h25.85l107.36,259.04h-29.55l-29.55-72.15H59.1l-29.55,72.15H0L107.11,95.05ZM170.15,256.09l-49.49-121.4h-.74l-49.49,121.4h99.73Z"></path><path class="cls-2" d="M343.99,198.71c-9.85,0-18.96,2.46-27.58,7.14-8.62,4.68-15.27,11.33-20.44,20.19-5.17,8.86-7.63,18.71-7.63,30.04v98h-25.85v-177.78h25.85v23.39h.74c5.66-7.63,13.54-14.04,23.64-19.21,10.1-5.17,21.67-7.88,34.72-7.88h7.39v25.85h-6.16c-1.48.25-2.95.25-4.68.25Z"></path><path class="cls-2" d="M521.78,320.85c-8.37,10.34-18.96,19.21-32.01,26.35s-26.84,10.83-42.11,10.83-30.53-4.19-44.32-12.31c-13.79-8.37-24.62-19.45-32.5-33.49-8.13-14.04-12.07-29.55-12.07-46.54s3.94-32.5,12.07-46.54,18.96-25.12,32.5-33.49c13.79-8.37,28.32-12.31,44.32-12.31,15.02,0,28.81,3.45,41.37,10.1,12.56,6.89,22.9,15.02,30.78,24.87l-18.47,18.47c-5.66-8.13-13.05-15.02-22.41-20.93-9.36-5.91-19.7-8.62-31.27-8.62s-21.42,2.95-31.03,9.11c-9.6,6.16-17.24,14.28-23.15,24.87-5.91,10.59-8.62,21.92-8.62,34.72s2.95,24.13,8.62,34.72c5.91,10.59,13.54,18.71,23.15,24.87,9.6,6.16,19.95,9.11,31.03,9.11s22.16-2.95,31.76-8.62c9.6-5.91,17.48-12.8,23.64-20.93l18.71,15.76Z"></path><path class="cls-2" d="M630.86,196.74c-10.34,0-19.7,2.46-28.32,7.63-8.62,5.17-15.27,12.07-19.95,20.93-4.92,8.86-7.14,19.21-7.14,30.78v98h-25.85V95.05h25.85v106.62h.25c5.66-8.13,13.54-15.02,23.39-20.44s21.18-8.37,33.73-8.37c14.04,0,26.59,3.2,37.67,9.36s19.45,15.02,25.61,26.35c6.16,11.57,9.11,24.87,9.11,40.14v105.39h-25.85v-105.39c0-10.34-1.97-19.45-6.16-27.33-4.19-7.88-9.85-13.79-17.24-18.22-7.63-4.19-15.76-6.4-25.12-6.4Z"></path><path class="cls-2" d="M721.72,176.31h27.82l45.8,136.17h.74l44.08-136.17h22.16l44.08,136.17h.74l45.8-136.17h27.82l-61.07,177.78h-24.13l-44.08-134.45h-.74l-44.08,134.45h-24.13l-60.82-177.78Z"></path><path class="cls-2" d="M1150.92,320.85c-7.88,10.34-18.22,19.21-31.03,26.35-12.8,7.14-27.09,10.83-42.85,10.83s-30.53-4.19-44.32-12.31c-13.79-8.37-24.62-19.45-32.5-33.49-8.13-14.04-12.07-29.55-12.07-46.54s3.94-32.26,12.07-46.54c8.13-14.28,18.71-25.36,32.01-33.73,13.3-8.37,27.58-12.31,42.85-12.31s30.29,3.94,43.34,11.57c13.05,7.63,23.39,18.22,30.78,31.76,7.39,13.54,11.08,28.81,11.08,45.8,0,3.2-.25,6.16-.74,8.62s-.99,3.94-.99,4.43h-144.3c.49,10.34,3.69,20.19,9.6,29.3,5.91,9.11,13.54,16.5,22.9,21.92,9.36,5.42,19.45,8.13,30.29,8.13,12.31,0,23.39-2.95,33.24-8.62,9.85-5.91,17.98-12.8,24.13-20.93l16.5,15.76ZM1134.42,252.39c-1.23-10.34-4.68-19.7-10.1-28.32-5.42-8.62-12.31-15.27-20.93-19.95-8.62-4.92-17.98-7.14-28.32-7.14s-19.7,2.46-28.56,7.63c-8.86,5.17-16.25,11.82-21.92,20.44-5.91,8.62-9.36,17.73-10.59,27.58h120.41v-.25Z"></path><path class="cls-2" d="M1193.52,307.8c4.92,7.14,11.57,13.3,19.7,18.22,8.13,5.17,16.99,7.63,26.59,7.63,12.56,0,22.16-2.71,28.81-8.37,6.65-5.66,10.1-12.56,10.1-21.18,0-5.66-1.72-10.34-5.42-14.04-3.69-3.69-8.13-6.65-13.79-9.11-5.66-2.46-12.8-4.92-21.67-7.63-12.07-3.69-21.67-7.14-29.06-10.59-7.39-3.45-13.54-8.37-18.71-14.77-5.17-6.65-7.88-15.02-7.88-25.36,0-8.62,2.46-16.74,7.63-24.38,5.17-7.63,12.07-13.79,21.18-18.47,9.11-4.68,19.21-7.14,30.53-7.14,12.07,0,23.15,2.46,33.24,7.14,10.1,4.68,17.98,10.34,24.13,16.99l-18.47,18.47c-3.94-5.17-9.36-9.6-16.01-13.05-6.89-3.69-14.28-5.42-22.65-5.42-9.85,0-17.98,2.46-24.13,7.88-6.16,5.17-9.36,11.33-9.36,18.22,0,5.42,1.72,9.85,5.17,13.3,3.45,3.45,7.88,6.16,13.05,8.37,5.17,2.22,12.31,4.43,21.42,7.14,12.07,3.69,21.92,7.39,29.55,10.83,7.63,3.45,14.04,8.62,19.21,15.27,5.42,6.89,7.88,15.51,7.88,26.35,0,9.85-2.71,18.96-7.88,27.09-5.17,8.13-12.8,14.53-22.65,19.45-9.85,4.92-21.42,7.14-34.47,7.14-14.53,0-27.33-2.95-38.41-9.11-11.08-6.16-19.95-13.54-26.35-22.41l18.71-18.47Z"></path><path class="cls-2" d="M1317.62,200.44v-24.13h20.44c4.68,0,8.37-1.48,10.83-4.43,2.71-2.95,3.94-7.63,3.94-14.04v-40.63h24.13v59.1h38.91v24.13h-38.91v105.39c0,9.11,2.22,16.01,6.4,20.68,4.19,4.68,10.1,7.14,17.73,7.14,8.13,0,16.25-1.72,24.13-5.66v24.13c-7.88,3.69-16.25,5.66-25.12,5.66-15.27,0-27.33-4.43-35.95-13.54-8.62-9.11-13.05-21.67-13.05-38.41v-105.39s-33.49,0-33.49,0Z"></path></g></svg> 